<mxfile host="app.diagrams.net" modified="2023-10-12T03:08:31.498Z" agent="Mozilla/5.0 (Windows NT 10.0; Win64; x64) AppleWebKit/537.36 (KHTML, like Gecko) Chrome/117.0.0.0 Safari/537.36" version="22.0.4" etag="fOpgN_TkcWi8AHRAIch1" type="github">
  <diagram name="第 1 页" id="eioVpRhC6zytjsX4mgOP">
    <mxGraphModel>
      <root>
        <mxCell id="0" />
        <mxCell id="1" parent="0" />
      </root>
    </mxGraphModel>
  </diagram>
</mxfile>
